# xmcd
#
# Track frame offsets: 
#        150
#        42687
#        53407
#        66647
#        85910
#        99597
#        111437
#        130057
#        155137
#        165785
#        179537
#        199365
#        211340
#
# Disc length: 3386 seconds
#
# Revision: 0
# Processed by: cddbd v1.4PL0 Copyright (c) Steve Scherf et al.
# Submitted via: ExactAudioCopy v0.90b4
#
DISCID=be0d380d
DTITLE=Joe Turner - The Midnight Special
DYEAR=1976
DGENRE=Blues
TTITLE0=The Midnight Special
TTITLE1=You're Driving Me Crazy
TTITLE2=So Long (It's Been Good To Know Yuh)
TTITLE3=I Left My Heart In San Francisco
TTITLE4=I'm Gonna Sit Right Down And Write Myself A Letter
TTITLE5=I Can't Give You Anything But Love
TTITLE6=After My Laughter Came Tears
TTITLE7=The Things That I Used To Do
TTITLE8=You're Driving Me Crazy (alternate-take 2)
TTITLE9=I'm Gonna Sit Right Down And Write Myself A Letter (alternate-
TTITLE9=take 10)
TTITLE10=I Left My Heart In San Francisco (alternate-take 3)
TTITLE11=I Can't Give You Anything But Love (alternate-take 2)
TTITLE12=Stoop Down Baby
EXTD=
EXTT0=
EXTT1=
EXTT2=
EXTT3=
EXTT4=
EXTT5=
EXTT6=
EXTT7=
EXTT8=
EXTT9=
EXTT10=
EXTT11=
EXTT12=
PLAYORDER=
